<svg t="1574777995074" class="icon" viewBox="0 0 1024 1024" version="1.1" xmlns="http://www.w3.org/2000/svg" p-id="7386" width="200" height="200"><path d="M787.099997 296.694126l-0.680445 570.463252-533.479054 143.353796 0.710465-570.423226 533.449034-143.393822z" fill="#ff3035" p-id="7387"></path><path d="M252.940498 1010.511174l-32.501265-9.396148 0.710465-570.423226 32.501265 9.396148-0.710465 570.423226z" fill="#ff3035" p-id="7388"></path><path d="M253.650963 440.087948l-32.501265-9.396148L754.598732 287.297978l32.501265 9.396148-533.449034 143.393822z" fill="#ff3035" p-id="7389"></path><path d="M728.641748 26.387265l-1.39091 622.277154L311.368728 760.097329l1.39091-622.277154L728.641748 26.387265z" fill="#ffe952" p-id="7390"></path><path d="M311.368728 760.097329l-32.491259-9.396148 1.39091-622.277154 32.491259 9.396148-1.39091 622.277154z" fill="#ffe952" p-id="7391"></path><path d="M312.759638 137.820175l-32.491259-9.396148L696.150489 16.991117l32.491259 9.396148-415.88211 111.43291z" fill="#ffe952" p-id="7392"></path><path d="M520.125316 582.240958l-32.501265-9.396147 267.164805-268.365591 32.501265 9.396148-267.164805 268.36559z" fill="#ff3035" p-id="7393"></path><path d="M787.290121 313.875368l-1.060694 470.717989-533.449034 142.933521 1.060694-470.717989 266.284229 125.432069 267.164805-268.36559z" fill="#ff3035" p-id="7394"></path><path d="M252.780393 927.526878l-32.491259-9.396148 1.050688-470.717989 32.501265 9.396148-1.060694 470.717989z" fill="#ff3035" p-id="7395"></path><path d="M545.231743 342.944387l-32.501265-9.396147 38.785377-10.386796 32.501266 9.396147-38.785378 10.386796zM558.590484 281.244017l-32.501265-9.386141 25.556721-6.854485 32.501266 9.396148-25.556722 6.844478z" fill="#DBDBDB" p-id="7396"></path><path d="M505.115495 408.687403l-32.501265-9.386141 0.040026-18.672218 32.501266 9.396148-0.040027 18.662211z" fill="#CCCCCC" p-id="7397"></path><path d="M559.571126 164.097368l-32.501266-9.396147 44.13888-11.827739 32.501266 9.396148-44.13888 11.827738z" fill="#DBDBDB" p-id="7398"></path><path d="M526.54952 274.919879l-32.501266-9.396148 3.542318-16.520809 32.491259 9.386141-3.532311 16.530816z" fill="#D3D3D3" p-id="7399"></path><path d="M530.081831 258.389063l-32.491259-9.386141 29.479288-94.301701 32.501266 9.396147-29.489295 94.291695z" fill="#D6D6D6" p-id="7400"></path><path d="M524.468158 275.470239l-32.491259-9.396148 2.071355-0.55036 32.501266 9.396148-2.081362 0.55036z" fill="#DBDBDB" p-id="7401"></path><path d="M505.235574 353.6614l-32.501265-9.396148 0.050032-21.484057 32.501266 9.396148-0.050033 21.484057zM464.929202 400.802244l-32.491259-9.396148 0.080052-36.363793 32.501266 9.396148-0.090059 36.363793z" fill="#CCCCCC" p-id="7402"></path><path d="M465.019261 364.438451l-32.501266-9.396148 40.216314-10.777051 32.501265 9.396148-40.216313 10.777051z" fill="#DBDBDB" p-id="7403"></path><path d="M465.059287 342.954394l-32.491259-9.396148 0.080052-36.663989 32.501266 9.396148-0.090059 36.663989z" fill="#CCCCCC" p-id="7404"></path><path d="M465.149346 306.290405l-32.501266-9.396148 26.727488-7.164688 32.491259 9.396148-26.717481 7.164688zM447.277652 194.187056l-32.501265-9.396148 45.119521-12.087909 32.501266 9.396148-45.119522 12.087909z" fill="#DBDBDB" p-id="7405"></path><path d="M491.866827 299.125717l-32.491259-9.396148-44.599181-104.938661 32.501265 9.396148 44.589175 104.938661z" fill="#C3C3C3" p-id="7406"></path><path d="M603.710006 152.26963l-45.119522 128.974387 25.556722-6.844478-0.080053 36.663989-38.785377 10.396802-0.050033 21.484057 38.785378-10.386796-0.080053 36.363793-38.785377 10.386796-0.050033 18.662211-39.986163 10.717012 0.040027-18.662211-40.22632 10.777052 0.090059-36.363793 40.216313-10.777051 0.050033-21.484057-40.22632 10.777051 0.090059-36.663989 26.717481-7.164688-44.589175-104.938661 45.119522-12.087909 28.828863 78.671474 3.242121 14.699618 2.081362-0.55036 3.532311-16.530816 29.489295-94.291695 44.13888-11.827738z" fill="#EFEFEF" p-id="7407"></path></svg>